{"title":"Sccoby Doo - Chill Out(2007) dvdrip by sledgeka","uid":5975545,"size":659788748,"categoryP":"video","categoryS":"movies","magnet":"?xt=urn:btih:d424b022a81d0114136ad883681e720447ecec0e&amp;dn=Sccoby+Doo+-+Chill+Out%282007%29+dvdrip+by+sledgeka&amp;tr=udp%3A%2F%2Ftracker.openbittorrent.com%3A80&amp;tr=udp%3A%2F%2Fopen.demonii.com%3A1337&amp;tr=udp%3A%2F%2Ftracker.coppersurfer.tk%3A6969&amp;tr=udp%3A%2F%2Fexodus.desync.com%3A6969","seeders":0,"leechers":1,"uploader":null,"files":5,"time":1290432960,"description":"\n\n\n\nPlot:\nChill Out, Scooby-Doo! is the eleventh Scooby-Doo direct-to-video film series, produced by Warner Bros. Animation. It is a semi-remake of the classic Scooby episodes, That's Snow Ghost!, The Ghost of Bigfoot, and There's No Creature Like Snow Creature, except it takes place in the Himalayas and features the Abominable Snowman.\n\n\nVideo Description:\nFormat : AVI\nFormat/Info : Audio Video Interleave\nFile size : 601 MiB\nDuration : 1h 9mn\nOverall bit rate : 1 205 Kbps\n\nVideo\nID : 0\nFormat : MPEG-4 Visual\nFormat profile : Simple@L1\nFormat settings, BVOP : No\nFormat settings, QPel : No\nFormat settings, GMC : No warppoints\nFormat settings, Matrix : Default (H.263)\nCodec ID : DIVX\nCodec ID/Info : Project Mayo\nCodec ID/Hint : DivX 4\nDuration : 1h 9mn\nBit rate : 1 000 Kbps\nWidth : 720 pixels\nHeight : 576 pixels\nDisplay aspect ratio : 16:9\nFrame rate : 25.000 fps\nStandard : PAL\nColor space : YUV\nChroma subsampling : 4:2:0\nBit depth : 8 bits\nScan type : Progressive\nBits/(Pixel*Frame) : 0.096\nStream size : 499 MiB (83%)\nWriting library : Lavc51.9.0\n\nAudio\nID : 1\nFormat : MPEG Audio\nFormat version : Version 1\nFormat profile : Layer 3\nMode : Joint stereo\nCodec ID : 55\nCodec ID/Hint : MP3\nDuration : 1h 9mn\nBit rate mode : Constant\nBit rate : 192 Kbps\nChannel(s) : 2 channels\nSampling rate : 48.0 KHz\nStream size : 95.8 MiB (16%)\nAlignment : Aligned on interleaves\nInterleave, duration : 24 ms (0.60 video frame)\n\nScreenshots:\n\n\n\n\n\n\nMore Info Here &lt;a href=&quot;\nhttp://www.imdb.com/title/tt1097636/&quot; rel=&quot;nofollow&quot; target=&quot;_NEW&quot;&gt;\nhttp://www.imdb.com/title/tt1097636/&lt;/a&gt;\n\nTrailer &lt;a href=&quot;\nhttp://www.youtube.com/watch?v=pHnhS55WEIE&quot; rel=&quot;nofollow&quot; target=&quot;_NEW&quot;&gt;\nhttp://www.youtube.com/watch?v=pHnhS55WEIE&lt;/a&gt;\n\n\nAnother Sledgeka Quality DVR rip.. Rock on Dudes!! ","torrent":{"xt":"urn:btih:d424b022a81d0114136ad883681e720447ecec0e","amp;dn":"Sccoby+Doo+-+Chill+Out%282007%29+dvdrip+by+sledgeka","amp;tr":["udp%3A%2F%2Ftracker.openbittorrent.com%3A80","udp%3A%2F%2Fopen.demonii.com%3A1337","udp%3A%2F%2Ftracker.coppersurfer.tk%3A6969","udp%3A%2F%2Fexodus.desync.com%3A6969"],"infoHash":"d424b022a81d0114136ad883681e720447ecec0e","infoHashBuffer":{"type":"Buffer","data":[212,36,176,34,168,29,1,20,19,106,216,131,104,30,114,4,71,236,236,14]},"announce":[],"urlList":[]}}